<mxfile host="Electron" modified="2023-08-31T13:04:25.533Z" agent="Mozilla/5.0 (Windows NT 10.0; Win64; x64) AppleWebKit/537.36 (KHTML, like Gecko) draw.io/21.6.8 Chrome/114.0.5735.289 Electron/25.5.0 Safari/537.36" etag="27o1m37L7bGk5gIlOd4Q" version="21.6.8" type="device">
  <diagram id="Sb8rje5TeF0Kjb5kD3xn" name="Page-1">
    <mxGraphModel dx="778" dy="1166" grid="1" gridSize="10" guides="1" tooltips="1" connect="1" arrows="1" fold="1" page="1" pageScale="1" pageWidth="1000" pageHeight="480" math="0" shadow="0">
      <root>
        <mxCell id="0" />
        <mxCell id="1" parent="0" />
        <mxCell id="I9rM1-ecZ6-F7NF7iSE2-82" value="" style="endArrow=none;dashed=1;html=1;dashPattern=1 3;strokeWidth=2;rounded=0;fontSize=16;fillColor=#f5f5f5;strokeColor=#666666;exitX=0;exitY=0;exitDx=0;exitDy=0;" parent="1" source="C1I6f87uF_0dMVVliCKQ-7" edge="1">
          <mxGeometry width="50" height="50" relative="1" as="geometry">
            <mxPoint x="861" y="381.8399999999999" as="sourcePoint" />
            <mxPoint x="760" y="240" as="targetPoint" />
          </mxGeometry>
        </mxCell>
        <mxCell id="C1I6f87uF_0dMVVliCKQ-22" value="" style="endArrow=none;dashed=1;html=1;dashPattern=1 3;strokeWidth=2;rounded=0;fontSize=16;fillColor=#f5f5f5;strokeColor=#666666;exitX=1;exitY=0;exitDx=0;exitDy=0;" parent="1" source="C1I6f87uF_0dMVVliCKQ-7" edge="1">
          <mxGeometry width="50" height="50" relative="1" as="geometry">
            <mxPoint x="856" y="378" as="sourcePoint" />
            <mxPoint x="760" y="240" as="targetPoint" />
          </mxGeometry>
        </mxCell>
        <mxCell id="C1I6f87uF_0dMVVliCKQ-21" value="" style="endArrow=none;dashed=1;html=1;dashPattern=1 3;strokeWidth=2;rounded=0;fontSize=16;fillColor=#f5f5f5;strokeColor=#666666;exitX=0;exitY=1;exitDx=0;exitDy=0;" parent="1" source="C1I6f87uF_0dMVVliCKQ-3" edge="1">
          <mxGeometry width="50" height="50" relative="1" as="geometry">
            <mxPoint x="800" y="169" as="sourcePoint" />
            <mxPoint x="760" y="240" as="targetPoint" />
          </mxGeometry>
        </mxCell>
        <mxCell id="C1I6f87uF_0dMVVliCKQ-20" value="" style="endArrow=none;dashed=1;html=1;dashPattern=1 3;strokeWidth=2;rounded=0;fontSize=16;fillColor=#f5f5f5;strokeColor=#666666;exitX=0;exitY=0;exitDx=0;exitDy=0;" parent="1" source="C1I6f87uF_0dMVVliCKQ-3" edge="1">
          <mxGeometry width="50" height="50" relative="1" as="geometry">
            <mxPoint x="800" y="89" as="sourcePoint" />
            <mxPoint x="760" y="240" as="targetPoint" />
          </mxGeometry>
        </mxCell>
        <mxCell id="I9rM1-ecZ6-F7NF7iSE2-81" value="" style="endArrow=none;dashed=1;html=1;dashPattern=1 3;strokeWidth=2;rounded=0;fontSize=16;fillColor=#f5f5f5;strokeColor=#666666;exitX=1;exitY=1;exitDx=0;exitDy=0;" parent="1" source="C1I6f87uF_0dMVVliCKQ-6" edge="1">
          <mxGeometry width="50" height="50" relative="1" as="geometry">
            <mxPoint x="806" y="144" as="sourcePoint" />
            <mxPoint x="760" y="240" as="targetPoint" />
          </mxGeometry>
        </mxCell>
        <mxCell id="I9rM1-ecZ6-F7NF7iSE2-83" value="" style="endArrow=none;dashed=1;html=1;dashPattern=1 3;strokeWidth=2;rounded=0;fontSize=16;fillColor=#f5f5f5;strokeColor=#666666;exitX=1;exitY=1;exitDx=0;exitDy=0;" parent="1" source="C1I6f87uF_0dMVVliCKQ-5" edge="1">
          <mxGeometry width="50" height="50" relative="1" as="geometry">
            <mxPoint x="896" y="240" as="sourcePoint" />
            <mxPoint x="760" y="240" as="targetPoint" />
          </mxGeometry>
        </mxCell>
        <mxCell id="C1I6f87uF_0dMVVliCKQ-19" value="" style="endArrow=none;dashed=1;html=1;dashPattern=1 3;strokeWidth=2;rounded=0;fontSize=16;fillColor=#f5f5f5;strokeColor=#666666;exitX=0;exitY=1;exitDx=0;exitDy=0;" parent="1" source="C1I6f87uF_0dMVVliCKQ-5" edge="1">
          <mxGeometry width="50" height="50" relative="1" as="geometry">
            <mxPoint x="834" y="169" as="sourcePoint" />
            <mxPoint x="760" y="240" as="targetPoint" />
          </mxGeometry>
        </mxCell>
        <mxCell id="I9rM1-ecZ6-F7NF7iSE2-80" value="" style="endArrow=none;dashed=1;html=1;dashPattern=1 3;strokeWidth=2;rounded=0;fontSize=16;fillColor=#f5f5f5;strokeColor=#666666;exitX=0;exitY=1;exitDx=0;exitDy=0;" parent="1" source="C1I6f87uF_0dMVVliCKQ-6" edge="1">
          <mxGeometry width="50" height="50" relative="1" as="geometry">
            <mxPoint x="774" y="64" as="sourcePoint" />
            <mxPoint x="760" y="240" as="targetPoint" />
          </mxGeometry>
        </mxCell>
        <mxCell id="I9rM1-ecZ6-F7NF7iSE2-67" value="" style="ellipse;whiteSpace=wrap;html=1;aspect=fixed;fillColor=#dae8fc;strokeColor=#6c8ebf;opacity=50;" parent="1" vertex="1">
          <mxGeometry x="560" y="39" width="400" height="400" as="geometry" />
        </mxCell>
        <mxCell id="I9rM1-ecZ6-F7NF7iSE2-4" value="" style="ellipse;whiteSpace=wrap;html=1;aspect=fixed;fillColor=#dae8fc;strokeColor=#6c8ebf;opacity=50;" parent="1" vertex="1">
          <mxGeometry x="40" y="40" width="400" height="400" as="geometry" />
        </mxCell>
        <mxCell id="I9rM1-ecZ6-F7NF7iSE2-2" value="" style="shape=mxgraph.signs.transportation.car_4;html=1;pointerEvents=1;fillColor=#000000;strokeColor=none;verticalLabelPosition=bottom;verticalAlign=top;align=center;" parent="1" vertex="1">
          <mxGeometry x="222.9" y="225" width="34.19" height="30" as="geometry" />
        </mxCell>
        <mxCell id="I9rM1-ecZ6-F7NF7iSE2-6" value="" style="shape=mxgraph.signs.transportation.car_4;html=1;pointerEvents=1;fillColor=#d5e8d4;strokeColor=#82b366;verticalLabelPosition=bottom;verticalAlign=top;align=center;" parent="1" vertex="1">
          <mxGeometry x="150" y="140" width="34.19" height="30" as="geometry" />
        </mxCell>
        <mxCell id="I9rM1-ecZ6-F7NF7iSE2-7" value="" style="shape=mxgraph.signs.transportation.car_4;html=1;pointerEvents=1;fillColor=#d5e8d4;strokeColor=#82b366;verticalLabelPosition=bottom;verticalAlign=top;align=center;" parent="1" vertex="1">
          <mxGeometry x="360" y="225" width="34.19" height="30" as="geometry" />
        </mxCell>
        <mxCell id="I9rM1-ecZ6-F7NF7iSE2-8" value="" style="shape=mxgraph.signs.transportation.car_4;html=1;pointerEvents=1;fillColor=#d5e8d4;strokeColor=#82b366;verticalLabelPosition=bottom;verticalAlign=top;align=center;" parent="1" vertex="1">
          <mxGeometry x="110" y="255" width="34.19" height="30" as="geometry" />
        </mxCell>
        <mxCell id="I9rM1-ecZ6-F7NF7iSE2-9" value="" style="shape=mxgraph.signs.transportation.car_4;html=1;pointerEvents=1;fillColor=#d5e8d4;strokeColor=#82b366;verticalLabelPosition=bottom;verticalAlign=top;align=center;" parent="1" vertex="1">
          <mxGeometry x="280" y="310" width="34.19" height="30" as="geometry" />
        </mxCell>
        <mxCell id="I9rM1-ecZ6-F7NF7iSE2-10" value="" style="shape=mxgraph.signs.transportation.car_4;html=1;pointerEvents=1;fillColor=#d5e8d4;strokeColor=#82b366;verticalLabelPosition=bottom;verticalAlign=top;align=center;" parent="1" vertex="1">
          <mxGeometry x="295.81" y="225" width="34.19" height="30" as="geometry" />
        </mxCell>
        <mxCell id="I9rM1-ecZ6-F7NF7iSE2-11" value="" style="shape=mxgraph.signs.transportation.car_4;html=1;pointerEvents=1;fillColor=#d5e8d4;strokeColor=#82b366;verticalLabelPosition=bottom;verticalAlign=top;align=center;" parent="1" vertex="1">
          <mxGeometry x="270" y="130" width="34.19" height="30" as="geometry" />
        </mxCell>
        <mxCell id="I9rM1-ecZ6-F7NF7iSE2-13" value="" style="shape=mxgraph.signs.transportation.car_4;html=1;pointerEvents=1;fillColor=#d5e8d4;strokeColor=#82b366;verticalLabelPosition=bottom;verticalAlign=top;align=center;" parent="1" vertex="1">
          <mxGeometry x="170" y="350" width="34.19" height="30" as="geometry" />
        </mxCell>
        <mxCell id="I9rM1-ecZ6-F7NF7iSE2-25" value="" style="shape=mxgraph.signs.transportation.car_4;html=1;pointerEvents=1;fillColor=#d5e8d4;strokeColor=#82b366;verticalLabelPosition=bottom;verticalAlign=top;align=center;" parent="1" vertex="1">
          <mxGeometry x="325.81" y="370" width="34.19" height="30" as="geometry" />
        </mxCell>
        <mxCell id="I9rM1-ecZ6-F7NF7iSE2-26" value="" style="shape=mxgraph.signs.transportation.car_4;html=1;pointerEvents=1;fillColor=#d5e8d4;strokeColor=#82b366;verticalLabelPosition=bottom;verticalAlign=top;align=center;" parent="1" vertex="1">
          <mxGeometry x="235.81" y="50" width="34.19" height="30" as="geometry" />
        </mxCell>
        <mxCell id="I9rM1-ecZ6-F7NF7iSE2-27" value="" style="shape=mxgraph.signs.transportation.car_4;html=1;pointerEvents=1;fillColor=#d5e8d4;strokeColor=#82b366;verticalLabelPosition=bottom;verticalAlign=top;align=center;" parent="1" vertex="1">
          <mxGeometry x="235.81" y="170" width="34.19" height="30" as="geometry" />
        </mxCell>
        <mxCell id="I9rM1-ecZ6-F7NF7iSE2-28" value="" style="shape=mxgraph.signs.transportation.car_4;html=1;pointerEvents=1;fillColor=#d5e8d4;strokeColor=#82b366;verticalLabelPosition=bottom;verticalAlign=top;align=center;" parent="1" vertex="1">
          <mxGeometry x="90" y="180" width="34.19" height="30" as="geometry" />
        </mxCell>
        <mxCell id="I9rM1-ecZ6-F7NF7iSE2-66" value="" style="shape=flexArrow;endArrow=classic;html=1;rounded=0;fontSize=16;fillColor=#f5f5f5;strokeColor=#666666;" parent="1" edge="1">
          <mxGeometry width="50" height="50" relative="1" as="geometry">
            <mxPoint x="470" y="240" as="sourcePoint" />
            <mxPoint x="530" y="240" as="targetPoint" />
          </mxGeometry>
        </mxCell>
        <mxCell id="I9rM1-ecZ6-F7NF7iSE2-68" value="" style="shape=mxgraph.signs.transportation.car_4;html=1;pointerEvents=1;fillColor=#000000;strokeColor=none;verticalLabelPosition=bottom;verticalAlign=top;align=center;" parent="1" vertex="1">
          <mxGeometry x="743" y="223" width="34.19" height="30" as="geometry" />
        </mxCell>
        <mxCell id="I9rM1-ecZ6-F7NF7iSE2-69" value="" style="shape=mxgraph.signs.transportation.car_4;html=1;pointerEvents=1;fillColor=#d5e8d4;strokeColor=#82b366;verticalLabelPosition=bottom;verticalAlign=top;align=center;" parent="1" vertex="1">
          <mxGeometry x="670" y="139" width="34.19" height="30" as="geometry" />
        </mxCell>
        <mxCell id="I9rM1-ecZ6-F7NF7iSE2-70" value="" style="shape=mxgraph.signs.transportation.car_4;html=1;pointerEvents=1;fillColor=#f8cecc;strokeColor=#b85450;verticalLabelPosition=bottom;verticalAlign=top;align=center;" parent="1" vertex="1">
          <mxGeometry x="880" y="224" width="34.19" height="30" as="geometry" />
        </mxCell>
        <mxCell id="I9rM1-ecZ6-F7NF7iSE2-71" value="" style="shape=mxgraph.signs.transportation.car_4;html=1;pointerEvents=1;fillColor=#d5e8d4;strokeColor=#82b366;verticalLabelPosition=bottom;verticalAlign=top;align=center;" parent="1" vertex="1">
          <mxGeometry x="630" y="254" width="34.19" height="30" as="geometry" />
        </mxCell>
        <mxCell id="I9rM1-ecZ6-F7NF7iSE2-72" value="" style="shape=mxgraph.signs.transportation.car_4;html=1;pointerEvents=1;fillColor=#d5e8d4;strokeColor=#82b366;verticalLabelPosition=bottom;verticalAlign=top;align=center;" parent="1" vertex="1">
          <mxGeometry x="800" y="309" width="34.19" height="30" as="geometry" />
        </mxCell>
        <mxCell id="I9rM1-ecZ6-F7NF7iSE2-73" value="" style="shape=mxgraph.signs.transportation.car_4;html=1;pointerEvents=1;fillColor=#d5e8d4;strokeColor=#82b366;verticalLabelPosition=bottom;verticalAlign=top;align=center;" parent="1" vertex="1">
          <mxGeometry x="815.81" y="224" width="34.19" height="30" as="geometry" />
        </mxCell>
        <mxCell id="I9rM1-ecZ6-F7NF7iSE2-74" value="" style="shape=mxgraph.signs.transportation.car_4;html=1;pointerEvents=1;fillColor=#f8cecc;strokeColor=#b85450;verticalLabelPosition=bottom;verticalAlign=top;align=center;" parent="1" vertex="1">
          <mxGeometry x="790" y="129" width="34.19" height="30" as="geometry" />
        </mxCell>
        <mxCell id="I9rM1-ecZ6-F7NF7iSE2-75" value="" style="shape=mxgraph.signs.transportation.car_4;html=1;pointerEvents=1;fillColor=#d5e8d4;strokeColor=#82b366;verticalLabelPosition=bottom;verticalAlign=top;align=center;" parent="1" vertex="1">
          <mxGeometry x="690" y="349" width="34.19" height="30" as="geometry" />
        </mxCell>
        <mxCell id="I9rM1-ecZ6-F7NF7iSE2-76" value="" style="shape=mxgraph.signs.transportation.car_4;html=1;pointerEvents=1;fillColor=#f8cecc;strokeColor=#b85450;verticalLabelPosition=bottom;verticalAlign=top;align=center;" parent="1" vertex="1">
          <mxGeometry x="845.81" y="369" width="34.19" height="30" as="geometry" />
        </mxCell>
        <mxCell id="I9rM1-ecZ6-F7NF7iSE2-77" value="" style="shape=mxgraph.signs.transportation.car_4;html=1;pointerEvents=1;fillColor=#f8cecc;strokeColor=#b85450;verticalLabelPosition=bottom;verticalAlign=top;align=center;" parent="1" vertex="1">
          <mxGeometry x="755.81" y="49" width="34.19" height="30" as="geometry" />
        </mxCell>
        <mxCell id="I9rM1-ecZ6-F7NF7iSE2-78" value="" style="shape=mxgraph.signs.transportation.car_4;html=1;pointerEvents=1;fillColor=#d5e8d4;strokeColor=#82b366;verticalLabelPosition=bottom;verticalAlign=top;align=center;" parent="1" vertex="1">
          <mxGeometry x="755.81" y="169" width="34.19" height="30" as="geometry" />
        </mxCell>
        <mxCell id="I9rM1-ecZ6-F7NF7iSE2-79" value="" style="shape=mxgraph.signs.transportation.car_4;html=1;pointerEvents=1;fillColor=#d5e8d4;strokeColor=#82b366;verticalLabelPosition=bottom;verticalAlign=top;align=center;" parent="1" vertex="1">
          <mxGeometry x="610" y="179" width="34.19" height="30" as="geometry" />
        </mxCell>
        <mxCell id="6AzoMlJlBIYyKFKdy99V-1" value="&lt;font style=&quot;font-size: 24px;&quot;&gt;Initially perceived vehicles&lt;/font&gt;" style="text;html=1;strokeColor=none;fillColor=none;align=center;verticalAlign=bottom;whiteSpace=wrap;rounded=0;fontSize=24;" parent="1" vertex="1">
          <mxGeometry x="80" y="450" width="320" height="30" as="geometry" />
        </mxCell>
        <mxCell id="6AzoMlJlBIYyKFKdy99V-2" value="&lt;font style=&quot;font-size: 24px;&quot;&gt;Bound Box Occlusion&lt;/font&gt;" style="text;html=1;strokeColor=none;fillColor=none;align=center;verticalAlign=bottom;whiteSpace=wrap;rounded=0;fontSize=24;" parent="1" vertex="1">
          <mxGeometry x="600" y="450" width="320" height="30" as="geometry" />
        </mxCell>
        <mxCell id="C1I6f87uF_0dMVVliCKQ-2" value="" style="rounded=0;whiteSpace=wrap;html=1;fillColor=none;" parent="1" vertex="1">
          <mxGeometry x="755.81" y="169" width="34.19" height="31" as="geometry" />
        </mxCell>
        <mxCell id="C1I6f87uF_0dMVVliCKQ-3" value="" style="rounded=0;whiteSpace=wrap;html=1;fillColor=none;" parent="1" vertex="1">
          <mxGeometry x="880" y="223" width="34.19" height="31" as="geometry" />
        </mxCell>
        <mxCell id="C1I6f87uF_0dMVVliCKQ-4" value="" style="rounded=0;whiteSpace=wrap;html=1;fillColor=none;" parent="1" vertex="1">
          <mxGeometry x="815.81" y="223" width="34.19" height="31" as="geometry" />
        </mxCell>
        <mxCell id="C1I6f87uF_0dMVVliCKQ-5" value="" style="rounded=0;whiteSpace=wrap;html=1;fillColor=none;" parent="1" vertex="1">
          <mxGeometry x="790" y="128" width="34.19" height="31" as="geometry" />
        </mxCell>
        <mxCell id="C1I6f87uF_0dMVVliCKQ-6" value="" style="rounded=0;whiteSpace=wrap;html=1;fillColor=none;" parent="1" vertex="1">
          <mxGeometry x="755.81" y="48" width="34.19" height="31" as="geometry" />
        </mxCell>
        <mxCell id="C1I6f87uF_0dMVVliCKQ-7" value="" style="rounded=0;whiteSpace=wrap;html=1;fillColor=none;" parent="1" vertex="1">
          <mxGeometry x="845.81" y="368" width="34.19" height="31" as="geometry" />
        </mxCell>
        <mxCell id="C1I6f87uF_0dMVVliCKQ-8" value="" style="rounded=0;whiteSpace=wrap;html=1;fillColor=none;" parent="1" vertex="1">
          <mxGeometry x="800" y="308" width="34.19" height="31" as="geometry" />
        </mxCell>
        <mxCell id="C1I6f87uF_0dMVVliCKQ-9" value="" style="rounded=0;whiteSpace=wrap;html=1;fillColor=none;" parent="1" vertex="1">
          <mxGeometry x="690" y="348" width="34.19" height="31" as="geometry" />
        </mxCell>
        <mxCell id="C1I6f87uF_0dMVVliCKQ-10" value="" style="rounded=0;whiteSpace=wrap;html=1;fillColor=none;" parent="1" vertex="1">
          <mxGeometry x="630" y="253.5" width="34.19" height="31" as="geometry" />
        </mxCell>
        <mxCell id="C1I6f87uF_0dMVVliCKQ-11" value="" style="rounded=0;whiteSpace=wrap;html=1;fillColor=none;" parent="1" vertex="1">
          <mxGeometry x="610" y="178.5" width="34.19" height="31" as="geometry" />
        </mxCell>
        <mxCell id="C1I6f87uF_0dMVVliCKQ-12" value="" style="rounded=0;whiteSpace=wrap;html=1;fillColor=none;" parent="1" vertex="1">
          <mxGeometry x="670" y="138" width="34.19" height="31" as="geometry" />
        </mxCell>
        <mxCell id="C1I6f87uF_0dMVVliCKQ-13" value="fov" parent="0" />
      </root>
    </mxGraphModel>
  </diagram>
</mxfile>
